<?xml version="1.0" standalone="no"?>
<!DOCTYPE svg PUBLIC "-//W3C//DTD SVG 20010904//EN"
 "http://www.w3.org/TR/2001/REC-SVG-20010904/DTD/svg10.dtd">
<svg version="1.0" xmlns="http://www.w3.org/2000/svg"
 width="900.000000pt" height="256.000000pt" viewBox="0 0 900.000000 256.000000"
 preserveAspectRatio="xMidYMid meet">
<metadata>
Created by potrace 1.16, written by Peter Selinger 2001-2019
</metadata>
<g transform="translate(0.000000,256.000000) scale(0.100000,-0.100000)"
fill="#000000" stroke="none">
<path d="M2289 2326 c-6 -7 -372 -122 -478 -151 -98 -27 -378 -134 -418 -160
-13 -9 -23 -24 -23 -34 0 -10 25 -56 55 -102 68 -104 70 -129 19 -249 -50
-116 -81 -153 -162 -191 -37 -17 -78 -42 -92 -54 -14 -12 -50 -32 -80 -43 -30
-11 -56 -27 -58 -35 -3 -13 2 -13 36 -2 54 19 82 10 82 -26 0 -32 -40 -60
-146 -104 -254 -103 -328 -136 -362 -164 -52 -40 -59 -77 -32 -161 11 -34 20
-73 20 -85 0 -21 53 -173 135 -389 33 -86 101 -205 118 -206 5 0 6 23 2 51 -6
45 -15 292 -17 504 -2 108 20 159 100 237 76 75 191 154 293 203 68 32 75 34
153 28 84 -6 223 13 299 40 27 10 52 11 80 6 54 -10 397 -11 397 -1 0 4 -32
13 -71 19 -105 16 -107 30 -5 38 166 14 75 35 -152 35 -149 0 -178 8 -231 63
-52 55 -77 199 -50 287 6 19 14 100 19 180 4 80 11 153 15 163 9 23 121 88
226 131 46 19 120 50 164 69 70 30 166 71 230 97 15 7 11 9 -21 9 -22 1 -43
-1 -45 -3z"/>
<path d="M3140 1355 l0 -665 119 0 c99 0 120 3 125 16 3 9 6 143 6 300 l0 283
148 3 147 3 0 120 0 120 -147 3 -148 3 0 114 0 115 178 2 177 3 3 123 3 122
-306 0 -305 0 0 -665z"/>
<path d="M3836 2005 c-3 -9 -6 -304 -6 -655 0 -533 2 -639 14 -649 9 -8 51
-11 122 -9 l109 3 3 223 2 222 33 0 32 0 85 -223 86 -222 124 0 c119 0 125 1
128 21 2 11 -38 125 -88 253 -49 128 -90 237 -90 243 0 5 14 27 30 48 17 21
43 65 58 97 26 56 27 64 27 223 0 164 0 165 -32 232 -37 78 -92 137 -165 175
-52 28 -56 28 -259 31 -184 3 -207 2 -213 -13z m366 -246 c37 -20 58 -86 58
-182 0 -138 -29 -182 -129 -194 l-51 -6 0 197 0 196 51 0 c28 0 59 -5 71 -11z"/>
<path d="M4660 1355 l0 -666 123 3 122 3 0 660 0 660 -122 3 -123 3 0 -666z"/>
<path d="M5150 1988 c-41 -21 -76 -48 -97 -76 -61 -80 -63 -100 -63 -563 0
-392 1 -422 20 -471 26 -70 66 -117 131 -153 53 -29 57 -30 194 -30 133 0 143
1 191 27 29 15 68 46 87 69 62 72 67 101 67 391 l0 258 -187 -2 -188 -3 -3
-122 -3 -123 66 0 65 0 0 -113 c0 -75 -4 -117 -12 -125 -15 -15 -132 -16 -159
-2 -18 10 -19 25 -19 403 0 292 3 396 12 405 16 16 150 16 166 0 7 -7 12 -40
12 -80 l0 -68 125 0 125 0 0 88 c0 54 -6 106 -16 134 -19 58 -73 120 -132 156
-44 25 -56 27 -182 30 l-135 4 -65 -34z"/>
<path d="M6005 2008 c-8 -22 -235 -1252 -235 -1273 0 -12 5 -26 12 -33 17 -17
212 -16 226 1 5 6 24 86 41 177 17 91 34 178 37 193 l6 28 106 -3 106 -3 36
-190 c19 -104 39 -196 43 -202 9 -14 190 -19 221 -7 10 4 16 18 16 39 0 36
-226 1260 -235 1276 -10 15 -375 12 -380 -3z m219 -492 c14 -77 26 -145 26
-153 0 -9 -16 -13 -56 -13 l-56 0 6 31 c3 17 16 86 28 155 12 68 23 123 24
121 1 -1 14 -65 28 -141z"/>
<path d="M6617 2013 c-13 -12 -8 -218 5 -231 8 -8 50 -12 125 -12 l113 0 0
-528 c0 -397 3 -531 12 -540 17 -17 224 -17 234 0 5 7 7 252 5 545 l-3 533
126 0 126 0 0 120 0 120 -368 0 c-203 0 -372 -3 -375 -7z"/>
<path d="M7450 1355 l0 -665 305 0 305 0 0 125 0 125 -180 0 -180 0 0 175 0
174 148 3 147 3 0 120 0 120 -147 3 -148 3 0 114 0 115 180 0 180 0 0 125 0
125 -305 0 -305 0 0 -665z"/>
</g>
</svg>
